<?xml version="1.0" encoding="UTF-8" standalone="no"?>
<!-- Created with Inkscape (http://www.inkscape.org/) -->

<svg
   width="210mm"
   height="297mm"
   viewBox="0 0 210 297"
   version="1.1"
   id="svg1"
   xml:space="preserve"
   inkscape:version="1.4.3 (0d15f75, 2025-12-25)"
   sodipodi:docname="controller.svg"
   xmlns:inkscape="http://www.inkscape.org/namespaces/inkscape"
   xmlns:sodipodi="http://sodipodi.sourceforge.net/DTD/sodipodi-0.dtd"
   xmlns="http://www.w3.org/2000/svg"
   xmlns:svg="http://www.w3.org/2000/svg"><sodipodi:namedview
     id="namedview1"
     pagecolor="#ffffff"
     bordercolor="#000000"
     borderopacity="0.25"
     inkscape:showpageshadow="2"
     inkscape:pageopacity="0.0"
     inkscape:pagecheckerboard="0"
     inkscape:deskcolor="#d1d1d1"
     inkscape:document-units="mm"
     inkscape:zoom="0.35945918"
     inkscape:cx="-433.98531"
     inkscape:cy="-79.285777"
     inkscape:window-width="1920"
     inkscape:window-height="1009"
     inkscape:window-x="-8"
     inkscape:window-y="-8"
     inkscape:window-maximized="1"
     inkscape:current-layer="layer1" /><defs
     id="defs1" /><g
     inkscape:label="Layer 1"
     inkscape:groupmode="layer"
     id="layer1"><path
       style="fill:#0c525e;fill-opacity:1"
       d="m 118.47089,171.00773 c -1.23116,-0.40066 -2.02881,-1.08839 -3.96509,-3.41872 -2.90764,-3.49936 -4.85544,-5.5108 -5.83792,-6.02865 -0.75765,-0.39935 -2.0093,-0.50187 -8.43038,-0.69055 -7.89167,-0.2319 -10.23212,-0.13982 -11.36027,0.44693 -0.37305,0.19402 -1.5561,1.28692 -2.629,2.42867 -6.35139,6.75895 -6.62905,6.97071 -9.14025,6.97071 -3.357932,0 -5.399769,-1.02665 -6.480052,-3.25822 -0.718777,-1.48479 -0.699469,-2.72085 0.117194,-7.50253 0.368565,-2.15799 1.015394,-5.95742 1.437397,-8.44317 0.863477,-5.08617 1.366299,-6.76422 3.164374,-10.56039 2.030497,-4.28686 4.116017,-5.80298 8.576187,-6.23468 4.05673,-0.39264 5.87983,-0.31493 7.24948,0.30902 1.44606,0.65876 4.75543,1.00645 9.70953,1.02011 2.70594,0.008 3.84179,-0.10824 5.42395,-0.55252 1.69305,-0.47541 2.49262,-0.54309 5.19182,-0.43943 3.58381,0.13763 4.7528,0.52661 7.79848,2.59489 1.41591,0.96153 1.7481,1.35281 2.4355,2.8688 1.07521,2.37126 1.92903,5.13085 2.31459,7.48087 0.17573,1.0711 0.48318,2.78089 0.68322,3.79954 2.22265,11.31793 2.46759,15.14727 1.10377,17.25652 -0.39721,0.61432 -1.1098,1.31986 -1.58354,1.56788 -0.96466,0.50504 -4.65463,0.75082 -5.77899,0.38492 z m -4.90226,-14.87802 c 1.37823,-0.62796 1.50579,-2.6701 0.2295,-3.67403 -0.91925,-0.72308 -1.56162,-0.65844 -2.46848,0.24842 -1.18095,1.18095 -1.00304,2.26001 0.54225,3.28893 0.77671,0.51717 0.84889,0.52298 1.69673,0.13668 z m -26.43457,-0.82557 c 0.0747,-0.32742 0.16626,-1.36922 0.20348,-2.31511 0.0677,-1.71979 0.0677,-1.71979 2.05205,-1.77057 1.0914,-0.0279 2.1332,-0.0577 2.3151,-0.0661 0.23382,-0.0109 0.33073,-0.59682 0.33073,-1.99974 0,-1.98437 0,-1.98437 -1.38906,-2.02467 -0.76399,-0.0222 -1.50813,-0.068 -1.65365,-0.10178 -0.14552,-0.0338 -0.62177,-0.0753 -1.05833,-0.0923 -0.79375,-0.0308 -0.79375,-0.0308 -0.83939,-2.16751 -0.0639,-2.99036 -0.0658,-2.99326 -1.84981,-2.80913 -0.81797,0.0844 -1.59145,0.25773 -1.71885,0.38512 -0.12739,0.1274 -0.355,0.99745 -0.50579,1.93346 -0.48872,3.03357 -0.23478,2.7521 -2.54941,2.8259 -2.26121,0.0721 -2.64639,0.30656 -2.5715,1.56526 0.0246,0.41264 0.06,1.01814 0.0788,1.34556 0.0325,0.56727 0.13852,0.59531 2.25068,0.59531 1.456,0 2.30718,0.11349 2.48067,0.33073 0.14525,0.1819 0.31929,1.23387 0.38674,2.3377 0.0674,1.10383 0.20832,2.14563 0.31307,2.3151 0.11291,0.18271 0.88211,0.30814 1.88957,0.30814 1.54544,0 1.71142,-0.0539 1.83494,-0.59531 z m 21.59372,-4.92685 c 1.43572,-1.16258 0.17086,-4.00284 -1.7826,-4.00284 -1.15848,0 -1.94518,0.85965 -1.94518,2.12555 0,1.02648 0.45864,1.62451 1.59294,2.07708 0.9821,0.39185 1.45935,0.34718 2.13484,-0.19979 z m 10.39175,-0.0533 c 0.96988,-0.76291 0.95004,-2.07065 -0.0484,-3.18806 -0.71603,-0.80138 -0.78422,-0.8216 -1.7244,-0.51131 -1.69157,0.55827 -2.2737,2.4386 -1.114,3.59831 0.80339,0.80339 1.94317,0.84329 2.88676,0.10106 z m -4.87941,-5.69286 c 1.02653,-0.86376 1.08957,-1.97397 0.16462,-2.89892 -1.33603,-1.33603 -3.5839,-0.435 -3.5839,1.43655 0,2.01 1.83551,2.79502 3.41928,1.46237 z"
       id="path1" /></g></svg>
