<?xml version="1.0" encoding="UTF-8" standalone="no"?>
<svg
   viewBox="0 0 500 500"
   width="500"
   height="500"
   role="img"
   aria-labelledby="logo-title logo-desc"
   version="1.1"
   id="svg17"
   xmlns="http://www.w3.org/2000/svg"
   xmlns:svg="http://www.w3.org/2000/svg"
   xmlns:rdf="http://www.w3.org/1999/02/22-rdf-syntax-ns#"
   xmlns:cc="http://creativecommons.org/ns#"
   xmlns:dc="http://purl.org/dc/elements/1.1/">
  <defs
     id="defs1">
    <style
       id="style1"><![CDATA[
      @import url('https://fonts.googleapis.com/css2?family=Montserrat:wght@900&display=swap');
    ]]></style>
  </defs>
  <title
     id="logo-title">Make Gaming More Accessible For All</title>
  <desc
     id="logo-desc">A wheelchair accessibility symbol with a game controller, alongside the text &quot;Make Gaming More Accessible For All&quot;</desc>
  <!-- Background -->
  <!-- All icon shapes in teal -->
  <g
     fill="#1a7878"
     aria-hidden="true"
     id="g17">
    <circle
       style="fill:#ffffff;stroke:none;stroke-width:5;fill-opacity:1"
       id="path17"
       cx="250"
       cy="250"
       r="234.51053" />
    <g
       id="g5"
       transform="matrix(1.2355178,0,0,1.2355178,-90.197061,-25.221667)">
      <text
         x="270.99792"
         y="129.2888"
         font-family="Montserrat, sans-serif"
         font-weight="900"
         font-size="38px"
         letter-spacing="0.894427"
         id="make"
         style="fill:#0c525e"
         transform="scale(0.89442719,1.118034)">MAKE</text>
      <text
         x="272.67709"
         y="170.48535"
         font-family="Montserrat, sans-serif"
         font-weight="900"
         font-size="38px"
         letter-spacing="0.894427"
         id="gaming"
         style="fill:#0c525e"
         transform="scale(0.89442719,1.118034)">GAMING</text>
      <text
         x="270.99792"
         y="212.13983"
         font-family="Montserrat, sans-serif"
         font-weight="900"
         font-size="38px"
         letter-spacing="0.894427"
         id="more"
         style="fill:#0c525e;"
         transform="scale(0.89442719,1.118034)">MORE</text>
      <text
         x="230.56442"
         y="253.79434"
         font-family="Montserrat, sans-serif"
         font-weight="900"
         font-size="38px"
         letter-spacing="0.894427"
         id="accessible"
         style="fill:#0c525e;"
         transform="scale(0.89442719,1.118034)">ACCESSIBLE</text>
      <text
         x="203.52808"
         y="295.44882"
         font-family="Montserrat, sans-serif"
         font-weight="900"
         font-size="38px"
         letter-spacing="0.894427"
         id="for_all"
         style="fill:#0c525e;"
         transform="scale(0.89442719,1.118034)">FOR ALL</text>
      <path
         style="fill:#0c525e;fill-opacity:1;stroke-width:1.14256"
         d="m 157.40422,267.75332 c -44.34239,-4.02835 -57.77077,-64.82339 -19.93194,-90.23901 8.83979,-5.93753 9.39364,-5.92259 10.29969,0.27796 0.95372,6.52689 0.97272,6.29119 -0.5705,7.07319 -28.17878,14.2791 -27.28355,57.17181 1.43594,68.7998 21.80468,8.82831 42.80349,-3.09909 49.33581,-28.02296 0.2773,-1.05806 0.2773,-1.05806 1.15494,0.90691 0.48269,1.08074 2.00517,4.24916 3.38326,7.04093 2.95648,5.98931 2.92607,5.69993 0.96072,9.145 -9.72867,17.05332 -27.50092,26.70493 -46.06792,25.01818 z m 56.16612,-23.5214 c -0.9866,-0.69105 -3.09926,-4.58792 -9.62364,-17.75114 -5.76181,-11.62468 -5.98286,-12.0141 -6.90006,-12.15538 -0.52116,-0.0802 -9.47204,-0.32378 -19.89085,-0.54112 -18.17019,-0.37905 -18.97036,-0.41965 -19.60678,-0.99484 -2.15386,-1.9466 -2.45736,-3.25937 -3.77283,-16.31944 -0.58616,-5.81934 -1.26479,-12.3491 -1.50805,-14.51057 -3.26965,-29.0518 -2.11621,-35.53054 6.32357,-35.51899 5.84082,0.008 8.26815,3.56375 8.94393,13.10183 0.44258,6.24666 1.75566,18.98752 1.97998,19.21181 0.10031,0.10032 8.50325,0.18475 18.67322,0.18771 20.38447,0.006 19.62991,-0.0611 21.48135,1.90821 1.80013,1.91471 1.36199,5.81759 -0.88563,7.88939 -1.64215,1.51368 -1.3543,1.47748 -13.29008,1.67101 -7.78643,0.12625 -25.04542,0.63364 -25.46908,0.74875 -0.0416,0.0115 -0.0755,1.947 -0.0755,4.30153 0,4.67287 0.56642,4.75176 25.42745,3.54161 11.1601,-0.54323 13.22597,0.99895 17.66577,13.1875 0.78734,2.16147 2.65802,6.99077 4.15705,10.73178 4.702,11.73431 4.79064,11.99434 4.80272,14.08796 0.0278,4.81772 -5.32278,9.40049 -8.43245,7.22239 z m -55.50151,-102.3566 c -10.65815,-2.50822 -14.10642,-16.68279 -5.80378,-23.85725 8.04364,-6.95064 20.81966,-2.43757 22.60498,7.98511 1.65275,9.64863 -7.30151,18.10775 -16.8012,15.87214 z"
         id="path1" />
      <path
         style="fill:#0c525e;fill-opacity:1;stroke-width:1.042"
         d="m 229.11622,171.1226 c -1.28286,-0.41749 -2.11401,-1.1341 -4.13162,-3.5623 -3.02975,-3.64634 -5.05935,-5.74226 -6.0831,-6.28185 -0.78947,-0.41612 -2.09369,-0.52295 -8.78445,-0.71955 -8.22311,-0.24164 -10.66185,-0.1457 -11.83738,0.4657 -0.38872,0.20217 -1.62146,1.34097 -2.73941,2.53067 -6.61815,7.04281 -6.90747,7.26347 -9.52413,7.26347 -3.49896,0 -5.62656,-1.06977 -6.75221,-3.39506 -0.74896,-1.54715 -0.72885,-2.83513 0.12212,-7.81763 0.38404,-2.24862 1.05804,-6.20763 1.49776,-8.79777 0.89975,-5.29978 1.42368,-7.04831 3.29727,-11.00391 2.11578,-4.46691 4.28889,-6.0467 8.93638,-6.49653 4.22711,-0.40913 6.12678,-0.32816 7.55395,0.32199 1.50679,0.68643 4.95515,1.04873 10.11732,1.06296 2.81958,0.008 4.00314,-0.11278 5.65174,-0.57573 1.76416,-0.49537 2.59731,-0.56589 5.40988,-0.45788 3.73432,0.14341 4.95241,0.54872 8.126,2.70387 1.47537,1.00192 1.82152,1.40963 2.53778,2.98928 1.12037,2.47086 2.01006,5.34635 2.41181,7.79506 0.1831,1.11609 0.50347,2.89769 0.71191,3.95912 2.316,11.79327 2.57123,15.78344 1.15013,17.98128 -0.4139,0.64011 -1.15642,1.37528 -1.65005,1.63372 -1.00518,0.52625 -4.85011,0.78236 -6.0217,0.40109 z m -5.10815,-15.50288 c 1.43612,-0.65434 1.56903,-2.78224 0.23914,-3.82834 -0.95785,-0.75345 -1.62721,-0.68609 -2.57215,0.25886 -1.23055,1.23055 -1.04517,2.35492 0.56502,3.42706 0.80933,0.53889 0.88455,0.54494 1.76799,0.14242 z m -27.54478,-0.86024 c 0.0778,-0.34118 0.17324,-1.42673 0.21202,-2.41235 0.0706,-1.79202 0.0706,-1.79202 2.13824,-1.84493 1.13723,-0.029 2.22279,-0.0601 2.41233,-0.0688 0.24364,-0.0113 0.34462,-0.62188 0.34462,-2.08373 0,-2.06771 0,-2.06771 -1.44741,-2.1097 -0.79607,-0.0231 -1.57146,-0.0709 -1.72309,-0.10606 -0.15164,-0.0352 -0.64788,-0.0785 -1.10278,-0.0962 -0.82708,-0.0321 -0.82708,-0.0321 -0.87464,-2.25854 -0.0666,-3.11595 -0.0686,-3.11898 -1.92751,-2.92711 -0.85231,0.0879 -1.65828,0.26855 -1.79103,0.40129 -0.13274,0.13276 -0.36991,1.03934 -0.52703,2.01466 -0.50925,3.16098 -0.24464,2.86769 -2.65649,2.94459 -2.35617,0.0751 -2.75754,0.31943 -2.6795,1.631 0.0257,0.42997 0.0626,1.0609 0.0821,1.40206 0.0339,0.5911 0.14435,0.62032 2.34521,0.62032 1.51715,0 2.40408,0.11825 2.58486,0.34462 0.15135,0.18954 0.3327,1.28569 0.40298,2.43589 0.0702,1.15018 0.21706,2.23573 0.32621,2.41233 0.11765,0.19038 0.91916,0.32107 1.96894,0.32107 1.61035,0 1.78329,-0.0562 1.912,-0.62031 z m 22.50062,-5.13377 c 1.49603,-1.21141 0.17804,-4.17096 -1.85746,-4.17096 -1.20714,0 -2.02688,0.89576 -2.02688,2.21482 0,1.06959 0.47791,1.69274 1.65985,2.16431 1.02334,0.40832 1.52064,0.36177 2.22449,-0.20817 z m 10.82819,-0.0555 c 1.01062,-0.79495 0.98994,-2.15761 -0.0504,-3.32196 -0.7461,-0.83503 -0.81716,-0.8561 -1.79682,-0.53277 -1.76261,0.5817 -2.36919,2.54101 -1.16079,3.74943 0.83714,0.83712 2.02479,0.8787 3.00801,0.1053 z m -5.08433,-5.93196 c 1.06964,-0.90003 1.13533,-2.05686 0.17153,-3.02066 -1.39215,-1.39214 -3.73442,-0.45328 -3.73442,1.49688 0,2.09441 1.9126,2.91241 3.56289,1.52378 z"
         id="path1-5" />
    </g>
  </g>
  <metadata
     id="metadata17">
    <rdf:RDF>
      <cc:Work
         rdf:about="">
        <dc:title>Make Gaming More Accessible For All</dc:title>
      </cc:Work>
    </rdf:RDF>
  </metadata>
</svg>
