<?xml version="1.0" encoding="UTF-8" standalone="no"?>
<!-- Created with Inkscape (http://www.inkscape.org/) -->

<svg
   width="210mm"
   height="297mm"
   viewBox="0 0 210 297"
   version="1.1"
   id="svg1"
   xml:space="preserve"
   inkscape:version="1.4.3 (0d15f75, 2025-12-25)"
   sodipodi:docname="wheelchair.svg"
   xmlns:inkscape="http://www.inkscape.org/namespaces/inkscape"
   xmlns:sodipodi="http://sodipodi.sourceforge.net/DTD/sodipodi-0.dtd"
   xmlns="http://www.w3.org/2000/svg"
   xmlns:svg="http://www.w3.org/2000/svg"><sodipodi:namedview
     id="namedview1"
     pagecolor="#ffffff"
     bordercolor="#000000"
     borderopacity="0.25"
     inkscape:showpageshadow="2"
     inkscape:pageopacity="0.0"
     inkscape:pagecheckerboard="0"
     inkscape:deskcolor="#d1d1d1"
     inkscape:document-units="mm"
     inkscape:zoom="0.71891835"
     inkscape:cx="396.42889"
     inkscape:cy="561.25984"
     inkscape:window-width="1920"
     inkscape:window-height="1009"
     inkscape:window-x="-8"
     inkscape:window-y="-8"
     inkscape:window-maximized="1"
     inkscape:current-layer="layer1" /><defs
     id="defs1" /><g
     inkscape:label="Layer 1"
     inkscape:groupmode="layer"
     id="layer1"><path
       style="fill:#0c525e;fill-opacity:1"
       d="M 87.71295,195.735 C 48.90343,192.20929 37.1506,139.00002 70.26804,116.75566 c 7.7368,-5.19667 8.22154,-5.18359 9.01453,0.24328 0.83472,5.71248 0.85136,5.5062 -0.49931,6.19063 -24.66274,12.4974 -23.87921,50.03813 1.25677,60.21522 19.08397,7.72675 37.46263,-2.7124 43.17988,-24.52636 0.2427,-0.92604 0.2427,-0.92604 1.01083,0.79375 0.42247,0.94589 1.75497,3.71896 2.96111,6.16239 2.58758,5.24199 2.56097,4.98871 0.84084,8.00392 -8.51476,14.92547 -24.06946,23.37279 -40.31974,21.89651 z m 49.15793,-20.58649 c -0.86349,-0.60482 -2.71255,-4.01546 -8.42284,-15.53622 -5.04287,-10.1742 -5.23634,-10.51503 -6.0391,-10.63868 -0.45613,-0.0702 -8.29015,-0.28338 -17.40894,-0.47361 -15.90299,-0.33175 -16.60332,-0.36728 -17.16033,-0.8707 -1.8851,-1.70371 -2.15073,-2.85268 -3.30207,-14.28316 -0.51302,-5.09323 -1.10697,-10.80823 -1.31988,-12.7 -2.86167,-25.42683 -1.85215,-31.09718 5.53455,-31.08707 5.11202,0.007 7.23647,3.11908 7.82793,11.46703 0.38736,5.46723 1.5366,16.61834 1.73293,16.81464 0.0878,0.0878 7.44224,0.16169 16.34325,0.16429 17.84098,0.005 17.18056,-0.0535 18.80099,1.67011 1.57551,1.6758 1.19205,5.09169 -0.77513,6.90498 -1.43725,1.32481 -1.18532,1.29313 -11.63179,1.46251 -6.81487,0.1105 -21.92035,0.55458 -22.29115,0.65533 -0.0364,0.01 -0.0661,1.70405 -0.0661,3.7648 0,4.0898 0.49574,4.15885 22.25471,3.0997 9.76758,-0.47545 11.57568,0.8743 15.4615,11.54201 0.6891,1.89177 2.32636,6.11849 3.63835,9.39271 4.1153,10.27015 4.19288,10.49773 4.20345,12.33012 0.0243,4.21658 -4.65863,8.22753 -7.38028,6.32121 z M 88.29463,85.56357 c -9.32827,-2.19525 -12.34627,-14.601174 -5.0796,-20.88043 7.03998,-6.083372 18.22186,-2.133427 19.78442,6.988751 1.44652,8.444713 -6.39046,15.848329 -14.70482,13.891679 z"
       id="path1" /></g></svg>
